<svg width="196" height="196" viewBox="0 0 196 196" fill="none" xmlns="http://www.w3.org/2000/svg">
<g clip-path="url(#clip0_41_667)">
<path d="M194.741 102.515C194.741 92.9655 191.08 84.2766 185.092 77.7582C184.057 76.631 183.71 75.0499 184.118 73.5746C184.793 71.1288 185.156 68.5531 185.156 65.8925C185.156 51.9819 175.304 40.3756 162.197 37.662C160.596 37.3303 159.321 36.0986 158.912 34.5148C155.704 22.0888 144.422 12.9091 130.994 12.9091C128.713 12.9091 126.495 13.1781 124.368 13.6812C122.77 14.059 121.1 13.5536 120.01 12.3253C113.303 4.76626 103.518 0 92.6173 0C77.1571 0 63.9425 9.58325 58.571 23.1311C57.7243 25.2663 55.679 26.651 53.3823 26.6483C53.3689 26.6483 53.3554 26.6483 53.342 26.6483C33.1163 26.6483 16.72 43.0447 16.72 63.2703C16.72 63.3976 16.7207 63.5244 16.7219 63.6512C16.7753 68.7641 14.7892 73.6453 11.2746 77.3589C4.93729 84.056 1.10068 93.1423 1.26402 103.129C1.57377 122.02 16.4513 137.749 35.3004 139.048C40.9179 139.435 46.2837 138.547 51.1472 136.652C53.4042 135.773 55.9711 136.249 57.6836 137.962C67.4279 147.709 80.89 153.739 95.7618 153.739C104.989 153.739 113.674 151.418 121.265 147.327C125.088 145.267 129.852 146.856 131.629 150.819L140.107 169.722C143.348 176.95 151.835 180.181 159.062 176.94C166.29 173.698 169.521 165.212 166.28 157.984L157.824 139.129C157.923 139.13 158.02 139.136 158.119 139.136C178.345 139.137 194.741 122.741 194.741 102.515Z" fill="url(#paint0_linear_41_667)"/>
<path d="M114.913 65.6773C108.738 70.4194 101.007 73.2437 92.6166 73.2437C72.3894 73.2437 55.9934 56.8477 55.9934 36.6205C55.9934 16.3979 72.3894 0.00195312 92.6166 0.00195312C104.499 0.00195312 115.055 5.65944 121.746 14.4249C110.358 18.2791 102.16 29.0538 102.16 41.7423C102.16 51.7121 107.218 60.5002 114.913 65.6773Z" fill="url(#paint1_linear_41_667)"/>
<path d="M95.7618 153.74C125.501 153.74 149.609 129.632 149.609 99.8927C149.609 70.1539 125.501 46.0458 95.7618 46.0458C66.0229 46.0458 41.9148 70.1539 41.9148 99.8927C41.9148 129.632 66.0229 153.74 95.7618 153.74Z" fill="url(#paint2_linear_41_667)"/>
<path d="M166.104 170.095L85.2573 89.2484C83.7431 86.401 80.2082 86.1466 78.1487 89.4394L47.4197 137.653C49.0104 137.268 49.6453 137.237 51.1476 136.652C53.4046 135.772 55.9715 136.248 57.684 137.962C67.4282 147.709 80.8904 153.739 95.7622 153.739C104.99 153.739 113.675 151.417 121.266 147.327C125.089 145.267 129.853 146.855 131.63 150.818L140.107 169.722C143.349 176.949 151.835 180.181 159.063 176.939C162.269 175.502 164.687 173.03 166.104 170.095Z" fill="url(#paint3_linear_41_667)"/>
<path d="M157.824 139.129C157.923 139.13 158.02 139.137 158.119 139.137C167.14 139.137 175.394 135.868 181.777 130.46L122.5 71.1838C122.155 70.1615 121.15 69.5397 120.135 69.5427L120.136 69.5397H95.7617V82.2466L105.524 92.009L100.834 99.0488C100.07 100.271 100.314 101.812 101.62 102.133L111.384 112.272L109.913 124.606C109.765 125.896 110.082 126.84 111.067 127.189L160.227 176.35C166.627 172.758 169.341 164.811 166.28 157.985L157.824 139.129Z" fill="url(#paint4_linear_41_667)"/>
<path d="M89.9617 63.2695C89.9617 76.0587 83.4069 87.3141 73.4743 93.8644C69.5881 77.8116 55.1283 65.8925 37.881 65.8925C32.9395 65.8925 28.2282 66.8702 23.9289 68.6434C20.55 70.0365 16.798 67.6438 16.7273 63.9897C16.725 63.8764 16.7234 63.7634 16.7223 63.6496C16.5201 43.8321 32.3907 27.2674 52.2002 26.664C72.9439 26.0322 89.9617 42.6626 89.9617 63.2695Z" fill="url(#paint5_linear_41_667)"/>
<path d="M78.2601 91.4967C95.5142 91.4967 109.501 77.5095 109.501 60.2554C109.501 43.0013 95.5142 29.0142 78.2601 29.0142C61.0061 29.0142 47.0189 43.0013 47.0189 60.2554C47.0189 77.5095 61.0061 91.4967 78.2601 91.4967Z" fill="url(#paint6_linear_41_667)"/>
<path d="M158.119 139.137C178.345 139.137 194.741 122.74 194.741 102.514C194.741 82.2887 178.345 65.8925 158.119 65.8925C137.893 65.8925 121.497 82.2887 121.497 102.514C121.497 122.74 137.893 139.137 158.119 139.137Z" fill="url(#paint7_linear_41_667)"/>
<path d="M99.5991 134.297H85.2316C82.9092 134.297 81.1048 132.274 81.3704 129.967L85.7416 91.9602C86.3042 87.0679 79.8443 84.8066 77.2328 88.9818L43.7261 142.552C42.107 145.141 43.9678 148.5 47.0212 148.5H61.3891C63.7115 148.5 65.5159 150.523 65.2503 152.831L60.8791 190.837C60.3165 195.73 66.7764 197.991 69.3878 193.816L102.895 140.245C104.514 137.657 102.653 134.297 99.5991 134.297Z" fill="url(#paint8_linear_41_667)"/>
<path d="M99.5991 134.297H85.2316C82.9092 134.297 81.1048 132.274 81.3704 129.967L85.7415 91.9602C85.9887 89.8108 84.8795 88.1705 83.3373 87.3596L64.9763 129.26C62.4683 134.984 66.6611 141.399 72.9101 141.399C79.0499 141.399 83.2408 147.61 80.9422 153.303L63.8353 195.68C65.7269 196.393 68.0562 195.945 69.3875 193.816L102.894 140.245C104.514 137.657 102.653 134.297 99.5991 134.297Z" fill="url(#paint9_linear_41_667)"/>
<path d="M129.95 94.6792H122.345C121.116 94.6792 120.161 93.6081 120.301 92.3868L122.615 72.2703C122.913 69.6808 119.494 68.4836 118.111 70.6938L100.376 99.0485C99.5192 100.419 100.504 102.197 102.12 102.197H109.725C110.954 102.197 111.909 103.268 111.769 104.489L109.455 124.606C109.157 127.196 112.577 128.393 113.959 126.183L131.694 97.8279C132.551 96.4574 131.566 94.6792 129.95 94.6792Z" fill="url(#paint10_linear_41_667)"/>
<path d="M129.95 94.6793H122.345C121.116 94.6793 120.161 93.6082 120.301 92.3869L122.615 72.2703C122.746 71.1328 122.159 70.2646 121.342 69.8353L111.624 92.0133C110.297 95.0428 112.516 98.4383 115.823 98.4383C119.073 98.4383 121.291 101.726 120.075 104.739L111.02 127.169C112.021 127.547 113.254 127.309 113.959 126.183L131.694 97.828C132.551 96.4575 131.566 94.6793 129.95 94.6793Z" fill="url(#paint11_linear_41_667)"/>
<path d="M117.217 88.4195C134.448 88.4195 148.416 78.3338 148.416 65.8925C148.416 53.4513 134.448 43.3656 117.217 43.3656C99.9867 43.3656 86.0186 53.4513 86.0186 65.8925C86.0186 78.3338 99.9867 88.4195 117.217 88.4195Z" fill="url(#paint12_linear_41_667)"/>
</g>
<defs>
<linearGradient id="paint0_linear_41_667" x1="68.2261" y1="45.7898" x2="135.512" y2="152.212" gradientUnits="userSpaceOnUse">
<stop stop-color="#FFE0EA"/>
<stop offset="1" stop-color="#FF80AB"/>
</linearGradient>
<linearGradient id="paint1_linear_41_667" x1="87.9191" y1="41.7599" x2="147.882" y2="-38.3433" gradientUnits="userSpaceOnUse">
<stop stop-color="#FF4181" stop-opacity="0"/>
<stop offset="1" stop-color="#FF4181"/>
</linearGradient>
<linearGradient id="paint2_linear_41_667" x1="81.2981" y1="119.579" x2="-17.5716" y2="254.152" gradientUnits="userSpaceOnUse">
<stop stop-color="#FF4181" stop-opacity="0"/>
<stop offset="1" stop-color="#FF4181"/>
</linearGradient>
<linearGradient id="paint3_linear_41_667" x1="122.767" y1="136.875" x2="66.0082" y2="112.921" gradientUnits="userSpaceOnUse">
<stop stop-color="#FF4181" stop-opacity="0"/>
<stop offset="1" stop-color="#FF4181"/>
</linearGradient>
<linearGradient id="paint4_linear_41_667" x1="140.844" y1="123.101" x2="80.5122" y2="69.3729" gradientUnits="userSpaceOnUse">
<stop stop-color="#FF4181" stop-opacity="0"/>
<stop offset="1" stop-color="#FF4181"/>
</linearGradient>
<linearGradient id="paint5_linear_41_667" x1="54.4673" y1="60.9387" x2="-60.3211" y2="70.5427" gradientUnits="userSpaceOnUse">
<stop stop-color="#FF4181" stop-opacity="0"/>
<stop offset="1" stop-color="#FF4181"/>
</linearGradient>
<linearGradient id="paint6_linear_41_667" x1="80.6363" y1="65.6973" x2="62.7665" y2="24.7702" gradientUnits="userSpaceOnUse">
<stop stop-color="#FFE0EA" stop-opacity="0"/>
<stop offset="1" stop-color="white"/>
</linearGradient>
<linearGradient id="paint7_linear_41_667" x1="158.388" y1="103.034" x2="187.683" y2="159.487" gradientUnits="userSpaceOnUse">
<stop stop-color="#FF4181" stop-opacity="0"/>
<stop offset="1" stop-color="#FF4181"/>
</linearGradient>
<linearGradient id="paint8_linear_41_667" x1="56.199" y1="124.288" x2="89.9037" y2="157.992" gradientUnits="userSpaceOnUse">
<stop stop-color="#FFF5D9"/>
<stop offset="1" stop-color="#FFCE47"/>
</linearGradient>
<linearGradient id="paint9_linear_41_667" x1="87.7015" y1="147.395" x2="26.5096" y2="121.923" gradientUnits="userSpaceOnUse">
<stop stop-color="#FFEBB4" stop-opacity="0"/>
<stop offset="1" stop-color="#FFCE47"/>
</linearGradient>
<linearGradient id="paint10_linear_41_667" x1="106.978" y1="89.3811" x2="124.818" y2="107.221" gradientUnits="userSpaceOnUse">
<stop stop-color="#FFF5D9"/>
<stop offset="1" stop-color="#FFCE47"/>
</linearGradient>
<linearGradient id="paint11_linear_41_667" x1="123.652" y1="101.612" x2="91.2638" y2="88.1298" gradientUnits="userSpaceOnUse">
<stop stop-color="#FFEBB4" stop-opacity="0"/>
<stop offset="1" stop-color="#FFCE47"/>
</linearGradient>
<linearGradient id="paint12_linear_41_667" x1="94.1457" y1="29.4019" x2="161.432" y2="135.824" gradientUnits="userSpaceOnUse">
<stop stop-color="#FFE0EA"/>
<stop offset="1" stop-color="#FF80AB"/>
</linearGradient>
<clipPath id="clip0_41_667">
<rect width="196" height="196" fill="white"/>
</clipPath>
</defs>
</svg>
