<svg width="170" height="170" viewBox="0 0 170 170" fill="none" xmlns="http://www.w3.org/2000/svg">
<g clip-path="url(#clip0_41_639)">
<path d="M149.781 60.7009C137.572 54.4843 120.656 50.1731 102.114 48.5506C102.005 48.5259 101.892 48.5091 101.777 48.5C82.2737 46.9047 62.9134 48.0837 45.7892 51.9111C29.3809 55.5777 16.0348 61.5685 8.20869 68.7798C2.7626 73.8005 0 79.257 0 85.0001C0 86.3749 1.11412 87.4903 2.49023 87.4903C3.86635 87.4903 4.98047 86.3749 4.98047 85.0001C4.98047 80.7057 7.20222 76.4814 11.5848 72.4426C18.7753 65.8162 31.3095 60.2508 46.8761 56.771C63.4232 53.0732 82.1466 51.9215 101.048 53.4377C101.15 53.4597 101.254 53.4753 101.36 53.4844C119.405 55.0317 135.799 59.1717 147.52 65.1405C158.806 70.8862 165.02 77.9392 165.02 85.0001C165.02 86.3749 166.134 87.4903 167.51 87.4903C168.886 87.4903 170 86.3749 170 85.0001C170 75.8394 163.008 67.4375 149.781 60.7009Z" fill="#3B7191"/>
<path d="M145.098 64.2467L144.903 137.959C144.902 138.689 144.482 139.352 143.823 139.662L131.036 145.684L87.6861 166.425L85.808 167.326C85.5551 167.449 85.2776 167.51 85.0013 167.51C84.7237 167.51 84.4462 167.449 84.1933 167.326L82.3152 166.425L25.9724 139.469C25.3187 139.156 24.9023 138.493 24.9023 137.766V64.2467C24.9023 63.8692 25.0152 63.5113 25.2162 63.2091C25.4004 62.9263 25.6585 62.6955 25.9724 62.545L71.9198 40.5622L84.0052 34.8775C84.511 34.6362 85.0934 34.6362 85.6005 34.8775L144.046 62.5541C144.356 62.7045 144.6 62.9315 144.782 63.2091C144.985 63.5113 145.098 63.8692 145.098 64.2467Z" fill="#FF50B5"/>
<path d="M144.784 63.2091L136.758 67.0482L77.9897 37.7063L84.0039 34.8762C84.5097 34.6376 85.096 34.6376 85.6018 34.8775L144.046 62.5541C144.356 62.7046 144.6 62.9316 144.784 63.2091Z" fill="#C43F9A"/>
<path d="M85 91.9181V167.51C84.7224 167.51 84.4462 167.449 84.192 167.326L82.3139 166.425L25.9724 139.469C25.3187 139.156 24.9023 138.493 24.9023 137.766V64.2467C24.9023 63.8693 25.0152 63.5113 25.2162 63.2091L85 91.9181Z" fill="#80DEEA"/>
<path d="M144.901 64.4452V137.956C144.901 138.688 144.479 139.352 143.82 139.663L131.036 145.684L87.6861 166.425L85.808 167.327C85.5538 167.449 85.2776 167.511 85 167.511V91.9182L130.811 69.9976L144.587 63.4076C144.788 63.7098 144.901 64.0678 144.901 64.4452Z" fill="#FFCA28"/>
<path d="M145.098 64.2467L144.904 137.959C144.902 138.688 144.482 139.352 143.824 139.662L136.758 142.989V67.0482L144.784 63.2091C144.985 63.5113 145.098 63.8693 145.098 64.2467Z" fill="#FFB300"/>
<path d="M117.207 18.3733L117.103 57.9939C117.102 58.3856 116.876 58.7423 116.524 58.9083L109.671 62.1456L86.4397 73.2946L85.4332 73.7784C85.297 73.8445 85.1492 73.877 85 73.877C84.8521 73.877 84.703 73.8445 84.5681 73.7784L83.5616 73.2946L53.3675 58.8046C53.0173 58.6372 52.7943 58.2806 52.7943 57.8902V18.3733C52.7943 18.1696 52.8539 17.9777 52.9629 17.8156C53.0602 17.6638 53.1989 17.5393 53.3675 17.4576L77.991 5.64323L84.4669 2.58751C84.7393 2.45781 85.0506 2.45781 85.323 2.58751L116.644 17.4641C116.81 17.5445 116.941 17.6664 117.04 17.8156C117.146 17.9777 117.207 18.1709 117.207 18.3733Z" fill="#FF50B5"/>
<path d="M117.038 17.8156L109.656 21.3577L77.9897 5.64327L84.4656 2.58625C84.738 2.45785 85.0519 2.45785 85.323 2.58755L116.643 17.4628C116.81 17.5445 116.94 17.6664 117.038 17.8156Z" fill="#C43F9A"/>
<path d="M85 33.2472V73.877C84.8521 73.877 84.703 73.8445 84.5668 73.7784L83.5603 73.2933L53.3662 58.8046C53.0161 58.6359 52.793 58.2806 52.793 57.8889V18.3733C52.793 18.1696 52.8539 17.9777 52.9616 17.8156L85 33.2472Z" fill="#80DEEA"/>
<path d="M117.102 18.4796V57.9913C117.102 58.3856 116.876 58.7423 116.522 58.9096L109.671 62.1456L86.4397 73.2946L85.4332 73.7784C85.297 73.8445 85.1492 73.8782 85 73.8782V33.2472L109.551 21.464L116.933 17.9219C117.041 18.084 117.102 18.2773 117.102 18.4796Z" fill="#FFCA28"/>
<path d="M117.207 18.3733L117.103 57.9926C117.102 58.3856 116.878 58.741 116.525 58.9083L109.671 62.1456L109.656 21.3577L117.038 17.8156C117.146 17.9777 117.207 18.1709 117.207 18.3733Z" fill="#FFB300"/>
<path d="M145.104 24.8959C129.05 8.84163 107.704 0 85 0C62.2961 0 40.9501 8.84163 24.8959 24.8959C8.84163 40.9501 0 62.2961 0 85C0 107.704 8.84163 129.05 24.8959 145.104C40.9501 161.158 62.2961 170 85 170C107.704 170 129.05 161.158 145.104 145.104C161.158 129.05 170 107.704 170 85C170 62.2961 161.158 40.9501 145.104 24.8959ZM28.4172 28.4172C43.5311 13.3033 63.6255 4.98047 85 4.98047C106.375 4.98047 126.469 13.3033 141.583 28.4172C156.697 43.5311 165.02 63.6255 165.02 85C165.02 93.0829 156.767 101.188 142.378 107.24C127.093 113.668 106.716 117.207 85 117.207C63.2844 117.207 42.9073 113.668 27.6221 107.24C13.2333 101.188 4.98047 93.0829 4.98047 85C4.98047 63.6255 13.3033 43.5311 28.4172 28.4172ZM141.583 141.583C126.469 156.697 106.375 165.02 85 165.02C63.6255 165.02 43.5311 156.697 28.4172 141.583C16.7209 129.886 9.09195 115.207 6.23985 99.2592C10.5939 103.97 17.1541 108.24 25.6922 111.83C41.5739 118.509 62.6372 122.188 85 122.188C107.363 122.188 128.426 118.509 144.308 111.83C152.846 108.24 159.406 103.97 163.76 99.2592C160.908 115.207 153.279 129.886 141.583 141.583Z" fill="#4380A0"/>
</g>
<defs>
<clipPath id="clip0_41_639">
<rect width="170" height="170" fill="white"/>
</clipPath>
</defs>
</svg>
