<svg width="148" height="148" viewBox="0 0 148 148" fill="none" xmlns="http://www.w3.org/2000/svg">
<g clip-path="url(#clip0_41_652)">
<path d="M27.8922 9.71364L52.4239 26.7352L74.0464 31.0975L76.9563 15.7904L74.0464 0.482788L27.8922 9.71364Z" fill="#96E8FF"/>
<path d="M45.1317 60.8697L62.1547 50.4668L74.0854 31.1158L27.8922 9.71362L32.91 37.0811L45.0307 60.8424L45.1317 60.8697Z" fill="#19CFFC"/>
<path d="M27.8922 9.71362L0 48.6326L26.0717 60.0704L45.0307 60.8424L27.8922 9.71362Z" fill="#96E8FF"/>
<path d="M0 48.6327L74.0854 147.517L58.9538 90.2358L45.0307 60.8424L0 48.6327Z" fill="#33B1FF"/>
<path d="M74.0464 60.4945L79.1778 48.6327L74.0464 31.1558L45.1317 60.8698H45.132L63.2218 70.2543L74.0464 60.4945Z" fill="#33B1FF"/>
<path d="M124.841 9.71829L74.0464 0.482788V31.0975L74.0854 31.1158L99.4436 26.0234L124.841 9.71829Z" fill="#19CFFC"/>
<path d="M106.295 60.0704L120.208 39.1181L124.841 9.71826L74.0854 31.1158L87.18 50.7048L106.295 60.0704Z" fill="#33B1FF"/>
<path d="M74.0464 31.1556V60.4943L87.1801 67.5383L106.293 60.0755L106.295 60.0703L74.0854 31.1157L74.0464 31.1556Z" fill="#4A98F7"/>
<path d="M106.301 60.0753L123.748 63.2704L148 48.8605L124.841 9.71826L106.295 60.0704L106.301 60.0753Z" fill="#19CFFC"/>
<path d="M45.1317 60.8698L45.0307 60.8424L74.0464 147.401L79.1778 92.1756L74.0464 60.4944C70.8208 60.536 48.0058 60.8325 45.1317 60.8698Z" fill="#19CFFC"/>
<path d="M74.0464 147.401L74.0854 147.517L101.633 89.4596L106.293 60.0756L74.0464 60.4943V147.401Z" fill="#33B1FF"/>
<path d="M106.301 60.0754H106.301L106.293 60.0757L74.0854 147.517L148 48.8606L106.301 60.0754Z" fill="#4A98F7"/>
</g>
<defs>
<clipPath id="clip0_41_652">
<rect width="148" height="148" fill="white"/>
</clipPath>
</defs>
</svg>
